<?xml version="1.0" encoding="UTF-8"?>
<svg version="1.1" xmlns="http://www.w3.org/2000/svg" width="500" height="500">
<path d="M0 0 C165 0 330 0 500 0 C500 165 500 330 500 500 C335 500 170 500 0 500 C0 335 0 170 0 0 Z " fill="transparent" transform="translate(0,0)"/>
<path d="M0 0 C6.63429826 3.56078155 12.23880884 8.17091483 15 15.375 C15.53095833 18.93443981 15.51548262 22.40776854 15.4375 26 C15.44458984 26.928125 15.45167969 27.85625 15.45898438 28.8125 C15.41247862 33.80650217 15.23404609 37.30885186 12 41.375 C12.59296875 41.63925781 13.1859375 41.90351562 13.796875 42.17578125 C16.08029054 43.41870425 17.47426723 44.67901646 19.25 46.5625 C21.73225257 49.12961591 24.27251502 51.50788091 27 53.8125 C31.0902016 57.35525588 34.5264137 61.23684197 38 65.375 C38.87780133 66.39158013 39.75679482 67.40713158 40.63671875 68.421875 C46.16343003 74.82368064 51.37570285 81.27840546 56 88.375 C56.37479492 88.94557129 56.74958984 89.51614258 57.13574219 90.10400391 C70.09047741 109.92649527 80.22398749 131.07143842 85 154.375 C85.18191895 155.2220752 85.36383789 156.06915039 85.55126953 156.94189453 C94.84531417 201.18091851 87.17631027 247.23376681 62.68896484 285.41943359 C56.57117133 294.44491513 49.55456972 302.53862424 42 310.375 C40.76056641 311.72658203 40.76056641 311.72658203 39.49609375 313.10546875 C28.36121984 324.88633534 14.17776339 334.9077026 -0.3125 342.1875 C-1.13363281 342.60644531 -1.95476562 343.02539062 -2.80078125 343.45703125 C-5 344.375 -5 344.375 -8 344.375 C-8 345.035 -8 345.695 -8 346.375 C-36.88607786 356.75323157 -36.88607786 356.75323157 -52 359.375 C-53.45720459 359.62878418 -53.45720459 359.62878418 -54.94384766 359.88769531 C-64.48760699 361.40735861 -73.85777269 361.85339108 -83.5 361.875 C-84.29604645 361.87834351 -85.0920929 361.88168701 -85.91226196 361.88513184 C-104.56783613 361.88977883 -123.59675769 359.70134094 -140.87768555 352.2578125 C-142.93734233 351.40106352 -144.98272425 350.74099938 -147.125 350.125 C-166.02595511 343.91326256 -182.99841781 332.24083278 -197 318.375 C-198.08667969 317.37919922 -198.08667969 317.37919922 -199.1953125 316.36328125 C-208.19491292 307.96486871 -215.09727904 297.13310879 -221.515625 286.7109375 C-222.79461682 284.69820827 -224.14902663 282.86774408 -225.625 281 C-229.24666925 276.05594493 -230.94184183 270.08656697 -233 264.375 C-233.56158278 263.0204527 -234.12392258 261.66621862 -234.6875 260.3125 C-242.55447987 238.49951036 -238.68721547 212.89060818 -229.46484375 192.1953125 C-228 189.375 -228 189.375 -226.25390625 187.2421875 C-224.78470778 185.47168547 -224.78470778 185.47168547 -225.15625 183.37890625 C-226.0820513 181.18012817 -227.1820264 179.30095435 -228.5 177.3125 C-232.99312822 170.50750057 -232.72461688 163.27167715 -232 155.375 C-230.8601705 152.11764242 -229.33545058 149.89010062 -227 147.375 C-226.56558594 146.85164062 -226.13117188 146.32828125 -225.68359375 145.7890625 C-223.47494668 143.51119857 -221.53229003 142.43644877 -218.39453125 142.07421875 C-215.90773685 142.06369635 -213.47620661 142.154784 -211 142.375 C-210.484375 141.240625 -209.96875 140.10625 -209.4375 138.9375 C-203.62687849 127.47766313 -193.73621019 117.72835903 -182 112.375 C-178.03035064 111.22219779 -174.03924862 110.25050216 -170 109.375 C-169.938125 108.323125 -169.87625 107.27125 -169.8125 106.1875 C-168.63685485 100.67101124 -165.90493184 98.72239081 -161.4375 95.5625 C-156.3251021 93.79639891 -151.35711005 94.1409515 -146 94.375 C-145.82726562 93.48683594 -145.65453125 92.59867187 -145.4765625 91.68359375 C-142.65416286 78.85332752 -137.47553745 67.27725397 -132 55.375 C-132.7930957 55.07464844 -133.58619141 54.77429688 -134.40332031 54.46484375 C-138.5770926 52.71308374 -140.97703799 49.42092401 -143 45.375 C-145.01419594 25.96097813 -145.01419594 25.96097813 -140.375 18.875 C-138.70703125 16.9609375 -138.70703125 16.9609375 -137 15.375 C-136.26330078 14.62089844 -136.26330078 14.62089844 -135.51171875 13.8515625 C-129.58994909 8.32883392 -123.37059856 6.83620988 -115.515625 7.09375 C-110.6034096 7.64294178 -108.58282497 9.76568299 -105.25 13.25 C-103.06413652 16.2859215 -102.55703079 17.80273731 -102 21.375 C-101.37996094 21.06046875 -100.75992188 20.7459375 -100.12109375 20.421875 C-79.11182195 10.26892269 -55.49547166 8.56971699 -33 14.375 C-32.89042969 13.46105469 -32.78085937 12.54710938 -32.66796875 11.60546875 C-32.00428596 8.39572798 -31.4399542 7.08297992 -29.3125 4.6875 C-28.59513672 3.84638672 -28.59513672 3.84638672 -27.86328125 2.98828125 C-20.41092878 -3.46417487 -8.9030317 -3.66234867 0 0 Z " fill="#232227" transform="translate(325,71.625)"/>
<path d="M0 0 C2.02512157 1.9441167 3.03778731 3.47147028 4.078125 6.0625 C5.32034146 8.67326001 6.45952471 9.61389609 9 11 C12.23670276 11.28005373 12.23670276 11.28005373 15.75 11.1875 C20.9134059 11.45531151 23.79282364 11.86969254 27.5 15.5625 C28.70881223 17.00742842 29.87770914 18.48688785 31 20 C31.51691406 20.64582031 32.03382813 21.29164062 32.56640625 21.95703125 C34.10699141 23.9320373 35.55680048 25.95293542 37 28 C37.79664063 29.08861328 37.79664063 29.08861328 38.609375 30.19921875 C53.90791799 51.42770156 61.53606549 70.66785783 58.5 97.125 C55.1067464 114.23364228 43.10705187 129.34420236 29 139 C20.75880925 144.06710837 12.76264356 148.09787541 3.28515625 150.19921875 C-0.13751742 151.39861722 -1.96192411 153.61841313 -4.32421875 156.28515625 C-8.02597627 160.07320183 -12.63909685 161.60111459 -17.625 163.0625 C-22.24097797 162.97701893 -23.76159326 161.16644214 -27 158 C-28.32156902 156.98450352 -29.65260576 155.98097225 -31 155 C-28.2294096 154.66453392 -25.45856036 154.33154158 -22.6875 154 C-21.50897461 153.85691406 -21.50897461 153.85691406 -20.30664062 153.7109375 C-19.1706543 153.57558594 -19.1706543 153.57558594 -18.01171875 153.4375 C-17.31522217 153.35371094 -16.61872559 153.26992187 -15.90112305 153.18359375 C-14 153 -14 153 -11 153 C-11.33 152.01 -11.66 151.02 -12 150 C-15.65077732 148.43667209 -19.83735943 148.80888388 -23.75 148.8125 C-24.46285156 148.81185547 -25.17570312 148.81121094 -25.91015625 148.81054688 C-30.94542014 148.86117567 -35.2405038 149.41350127 -40 151 C-40 152.32 -40 153.64 -40 155 C-44.14649844 155.40453643 -47.95697408 155.12308148 -51.59375 152.921875 C-54.43532154 149.03839389 -53.82140311 143.58421166 -53.90625 138.921875 C-54.07092035 132.03316554 -55.90934865 126.68433203 -59.1953125 120.6640625 C-60 119 -60 119 -60 117 C-58.02 116.505 -58.02 116.505 -56 116 C-55.96003906 115.44054687 -55.92007813 114.88109375 -55.87890625 114.3046875 C-54.87753684 106.61515943 -51.38127457 101.349073 -47.09375 95.1015625 C-43.09926283 89.18435575 -42.24769682 85.12951936 -43 78 C-44.61998809 74.19302798 -46.55532971 72.2205821 -50 70 C-54.18382346 69.01808225 -58.2405336 69.01093094 -62.04296875 71.1484375 C-64.20237345 72.97391364 -66.08330183 74.91951126 -68 77 C-68.94423961 77.97629921 -69.88962652 78.95148965 -70.8359375 79.92578125 C-71.83055262 80.96904513 -72.82274713 82.01462214 -73.8125 83.0625 C-74.28099365 83.5565332 -74.7494873 84.05056641 -75.23217773 84.55957031 C-78.19538515 87.79878638 -80.21048688 90.99886268 -82 95 C-87.50725335 94.0689176 -92.44774644 92.29149932 -97 89 C-97.875 85.5625 -97.875 85.5625 -98 82 C-100.28712189 77.77694406 -100.28712189 77.77694406 -104 75 C-102.16896051 51.65424654 -88.45444993 26.31519704 -71.97265625 9.9921875 C-54.08765195 -4.45193859 -21.51813044 -8.13620853 0 0 Z " fill="#FBFBFB" transform="translate(293,97)"/>
<path d="M0 0 C11.66135238 7.85910648 21.95467668 17.24779879 24.875 31.484375 C26.7532103 45.50387328 25.29577324 58.12615194 16.8125 69.6875 C7.38273619 81.49542951 -8.08340631 84.4583685 -21.921875 88.85180664 C-23.66517083 89.41797766 -25.40112311 90.00781636 -27.125 90.63061523 C-36.97345556 94.17814289 -48.06083659 94.94209408 -57.74169922 90.44140625 C-69.24543957 84.30925946 -79.05003099 74.57450261 -84.6875 62.75 C-85.4609375 59.55078125 -85.4609375 59.55078125 -85.6875 56.75 C-84.6875 55.41666667 -83.6875 54.08333333 -82.6875 52.75 C-82.83000205 49.32995073 -83.18078513 47.3931381 -85.3125 44.6875 C-86.6875 42.75 -86.6875 42.75 -86.5 40.3125 C-85.6875 37.75 -85.6875 37.75 -84.625 35.375 C-83.07317666 31.02989466 -83.23958252 27.09375244 -84.6875 22.75 C-81.34922249 11.16421335 -72.31456727 0.76036777 -61.83203125 -5.15234375 C-60.77048828 -5.69568359 -60.77048828 -5.69568359 -59.6875 -6.25 C-58.96949219 -6.64316406 -58.25148437 -7.03632813 -57.51171875 -7.44140625 C-39.69605939 -15.59626149 -15.92853834 -9.72407935 0 0 Z " fill="#FAFAFA" transform="translate(205.6875,199.25)"/>
<path d="M0 0 C3.67932827 3.954786 3.64197427 7.64554641 3.61450195 12.87231445 C2.99989364 27.29753305 -7.176754 37.48536331 -16.98046875 46.90234375 C-20.96723135 50.48769318 -25.3847311 53.29077721 -30 56 C-28.17910512 59.89812933 -25.76489555 63.21336138 -23.2421875 66.68359375 C-21.77647309 69.41682849 -21.53269497 70.94263201 -22 74 C-23.109375 75.64282227 -23.109375 75.64282227 -25 77 C-27.97998047 77.26123047 -27.97998047 77.26123047 -31.6171875 77.1171875 C-32.9609232 77.08405054 -34.30467396 77.05151944 -35.6484375 77.01953125 C-37.74600273 76.95200889 -39.8426774 76.87636844 -41.93945312 76.78759766 C-57.90800747 76.15846407 -69.86192635 80.86318546 -81.81640625 91.5078125 C-93.14509866 102.32786974 -99.12191482 114.36574446 -104 129 C-122.41531188 126.43757256 -142.53813047 106.47376179 -153.85546875 92.75 C-155 91 -155 91 -155 89 C-154.14728516 88.83177734 -154.14728516 88.83177734 -153.27734375 88.66015625 C-146.15104522 86.83991639 -142.7764699 83.20420055 -139 77 C-138.07523481 74.22570443 -137.89230753 72.65620705 -137.9375 69.8046875 C-137.94523437 69.00675781 -137.95296875 68.20882812 -137.9609375 67.38671875 C-137.97382813 66.55785156 -137.98671875 65.72898437 -138 64.875 C-138.04566888 61.91108965 -138.04715908 58.96512688 -138 56 C-135.09159227 53.09159227 -125.91891037 54.75044366 -121.99365234 54.74682617 C-112.1522916 54.8340599 -102.9950218 55.82406631 -93.55834961 58.75952148 C-86.38207322 60.92668844 -79.79206309 61.50638998 -72.3125 61.4375 C-70.60719116 61.42831543 -70.60719116 61.42831543 -68.86743164 61.41894531 C-47.02967397 61.0157199 -28.34451811 52.6141933 -13 37 C-4.70234528 27.38185829 -1.99265347 19.11396931 -1.39453125 6.53125 C-1.10301492 1.10301492 -1.10301492 1.10301492 0 0 Z " fill="#F9F9F9" transform="translate(275,275)"/>
<path d="M0 0 C4.31546369 2.24822944 7.79770191 5.11199678 11.3984375 8.35546875 C12.5788229 9.39782001 13.7598015 10.43949994 14.94140625 11.48046875 C15.49602539 11.97442139 16.05064453 12.46837402 16.62207031 12.97729492 C18.04579183 14.21222239 19.52962397 15.3770381 21.01953125 16.53125 C24.15922944 19.14486685 25.05953927 21.45350807 26.2109375 25.35546875 C26.4739251 31.39366409 25.13995167 35.6624796 21.2109375 40.35546875 C16.48413107 44.62112333 13.0715274 45.54460004 6.7734375 45.73046875 C5.64035156 45.77945313 4.50726563 45.8284375 3.33984375 45.87890625 C0.2109375 45.35546875 0.2109375 45.35546875 -1.94921875 43.20703125 C-2.55636719 42.26601562 -3.16351563 41.325 -3.7890625 40.35546875 C-6.53089717 36.14024413 -9.36297614 32.54336242 -12.8515625 28.91796875 C-17.74059127 23.59691977 -20.39556931 20.09365407 -21.1640625 12.79296875 C-20.53495343 7.02613558 -18.2021292 3.07899378 -13.7890625 -0.64453125 C-8.84304427 -2.29320399 -4.68684892 -2.31957888 0 0 Z " fill="#262529" transform="translate(296.7890625,163.64453125)"/>
<path d="M0 0 C3.26518538 2.47147431 6.15829762 5.31659524 8 9 C8.16962949 13.12601196 7.99447262 17.2485995 7.875 21.375 C7.8646875 22.52484375 7.854375 23.6746875 7.84375 24.859375 C7.58671292 33.34159869 7.58671292 33.34159869 4.5703125 36.7265625 C3.72210938 37.14679688 2.87390625 37.56703125 2 38 C1.01 38.495 1.01 38.495 0 39 C-2.93635355 39.28882166 -5.14638773 39.50390082 -8 39 C-10.875 36.625 -10.875 36.625 -13 34 C-13.66 33.34 -14.32 32.68 -15 32 C-15.23046875 29.90625 -15.23046875 29.90625 -15.1875 27.5 C-15.18105469 26.7059375 -15.17460937 25.911875 -15.16796875 25.09375 C-15 23 -15 23 -14 21 C-13.76010926 17.49492969 -13.61712556 13.99084632 -13.4765625 10.48046875 C-12.97688736 6.83120193 -12.20723253 4.91333772 -10 2 C-6.17798542 -0.54800972 -4.53385176 -0.68007776 0 0 Z " fill="#2A292D" transform="translate(171,230)"/>
<path d="M0 0 C1.25683594 0.33515625 2.51367188 0.6703125 3.80859375 1.015625 C5.06800781 1.34046875 6.32742187 1.6653125 7.625 2 C12.68496889 3.76853282 17.76943608 6.31230966 20.24609375 11.265625 C20.76441572 14.05304536 20.84274631 16.48692878 20.24609375 19.265625 C18.18359375 21.828125 18.18359375 21.828125 15.24609375 23.265625 C10.17765655 23.265625 6.56068609 21.58819264 2.22265625 19.2265625 C0.04668324 18.07502245 0.04668324 18.07502245 -3.37890625 17.453125 C-8.38182552 15.69283859 -11.40054389 11.97234971 -13.75390625 7.265625 C-14.00390625 4.265625 -14.00390625 4.265625 -13.75390625 1.265625 C-9.16604028 -1.79295231 -5.28356824 -1.03362209 0 0 Z " fill="#2A292D" transform="translate(199.75390625,212.734375)"/>
<path d="M0 0 C0.79921875 0.00902344 1.5984375 0.01804688 2.421875 0.02734375 C3.02515625 0.03894531 3.6284375 0.05054688 4.25 0.0625 C4.5625 2.3125 4.5625 2.3125 4.25 5.0625 C2.06640625 6.99609375 2.06640625 6.99609375 -0.75 9.0625 C-1.62398438 9.70832031 -2.49796875 10.35414063 -3.3984375 11.01953125 C-4.74808594 11.93798828 -4.74808594 11.93798828 -6.125 12.875 C-7.46691406 13.81279297 -7.46691406 13.81279297 -8.8359375 14.76953125 C-12.68483915 16.47728788 -14.69900027 16.11947482 -18.75 15.0625 C-22.2421875 13.390625 -22.2421875 13.390625 -25.625 11.3125 C-26.75679687 10.63703125 -27.88859375 9.9615625 -29.0546875 9.265625 C-31.75 7.0625 -31.75 7.0625 -32.6328125 4.296875 C-32.67148438 3.55953125 -32.71015625 2.8221875 -32.75 2.0625 C-27.90231497 0.78836513 -23.155437 0.98682693 -18.1875 1.0625 C-16.49876354 1.08810631 -14.80994953 1.10910489 -13.12109375 1.125 C-12.0062561 1.14240234 -12.0062561 1.14240234 -10.86889648 1.16015625 C-7.13683072 0.98815184 -3.79725915 -0.05584205 0 0 Z " fill="#2B2A2E" transform="translate(279.75,225.9375)"/>
<path d="M0 0 C3.67932827 3.954786 3.64197427 7.64554641 3.61450195 12.87231445 C2.99989364 27.29753305 -7.176754 37.48536331 -16.98046875 46.90234375 C-20.47683804 50.04667586 -24.253928 52.53669627 -28.30078125 54.921875 C-30.16088261 56.01539045 -30.16088261 56.01539045 -32 58 C-32.375 55.2734375 -32.375 55.2734375 -32 52 C-29.97724606 50.20542257 -28.287091 48.978412 -26 47.625 C-24.79437376 46.84700833 -23.59253525 46.06311598 -22.39453125 45.2734375 C-21.80881348 44.88897461 -21.2230957 44.50451172 -20.61962891 44.10839844 C-12.62768725 38.63908654 -5.03247089 28.99307779 -2.30859375 19.62109375 C-1.79624031 15.26933222 -1.60245632 10.90537749 -1.39453125 6.53125 C-1.10301492 1.10301492 -1.10301492 1.10301492 0 0 Z " fill="#EAEAEA" transform="translate(275,275)"/>
<path d="M0 0 C1.57455739 3.14911479 1.34799118 5.52008816 1 9 C-0.33067494 11.91007418 -1.41107319 12.84256099 -4 15 C-7.16546004 15.44788536 -8.81328033 14.94034351 -12 14 C-13.5 11.9375 -13.5 11.9375 -14 10 C-13.319375 9.1646875 -13.319375 9.1646875 -12.625 8.3125 C-10.88949648 6.05045708 -10.88949648 6.05045708 -10 3.3125 C-9.505 2.1678125 -9.505 2.1678125 -9 1 C-5.8035914 -0.06546953 -3.34252724 -0.07427838 0 0 Z " fill="#423C44" transform="translate(218,257)"/>
<path d="M0 0 C0.52078125 0.26167969 1.0415625 0.52335938 1.578125 0.79296875 C1.46353807 2.23133626 1.33603384 3.66867841 1.203125 5.10546875 C1.13351563 5.90597656 1.06390625 6.70648438 0.9921875 7.53125 C0.578125 9.79296875 0.578125 9.79296875 -1.421875 12.79296875 C-4.47669961 13.95513029 -7.43159662 13.89810399 -10.671875 13.85546875 C-11.56390625 13.84644531 -12.4559375 13.83742188 -13.375 13.828125 C-14.05046875 13.81652344 -14.7259375 13.80492187 -15.421875 13.79296875 C-15.421875 12.47296875 -15.421875 11.15296875 -15.421875 9.79296875 C-13.37221781 7.811436 -11.44036513 6.168478 -9.171875 4.48046875 C-8.58535156 4.01318359 -7.99882812 3.54589844 -7.39453125 3.06445312 C-3.0258836 -0.25866424 -3.0258836 -0.25866424 0 0 Z " fill="#2E2E30" transform="translate(209.421875,242.20703125)"/>
<path d="M0 0 C3.77136165 4.00205664 3.50321918 7.77531175 3.49804688 13.05688477 C3.30445719 19.49452249 1.19744716 24.50724256 -2 30 C-2.66 29.34 -3.32 28.68 -4 28 C-4.66 28.33 -5.32 28.66 -6 29 C-5.566875 27.9790625 -5.566875 27.9790625 -5.125 26.9375 C-2.76508273 20.77549378 -1.68424115 15.16063157 -1.4375 8.625 C-1.12325581 1.12325581 -1.12325581 1.12325581 0 0 Z " fill="#DFDFE1" transform="translate(275,275)"/>
<path d="M0 0 C0 4.81873664 -3.27053373 7.21442094 -6.4375 10.625 C-8.84856301 12.85964377 -11.15516561 14.38536426 -14 16 C-14.66 16.66 -15.32 17.32 -16 18 C-16.39453125 15.29296875 -16.39453125 15.29296875 -16 12 C-13.87489664 10.09922995 -12.08777271 8.75878547 -9.6875 7.3125 C-4.47837765 4.11588994 -4.47837765 4.11588994 0 0 Z " fill="#E0E0E1" transform="translate(259,315)"/>
<path d="M0 0 C2.56761548 2.61478952 2.9956345 3.94528576 3.29296875 7.671875 C3.27316751 9.03156035 3.23759202 10.3910934 3.1875 11.75 C3.17396484 12.44738281 3.16042969 13.14476562 3.14648438 13.86328125 C3.1112945 15.57585541 3.05749155 17.28802941 3 19 C2.67 19 2.34 19 2 19 C1.67 16.03 1.34 13.06 1 10 C0.67 11.65 0.34 13.3 0 15 C-0.33 15 -0.66 15 -1 15 C-1.02685412 12.68756208 -1.04632841 10.3750373 -1.0625 8.0625 C-1.07410156 6.77472656 -1.08570313 5.48695313 -1.09765625 4.16015625 C-1 1 -1 1 0 0 Z " fill="#CACACB" transform="translate(275,275)"/>
<path d="M0 0 C2.125 0.375 2.125 0.375 4 1 C4.625 3.375 4.625 3.375 5 6 C4.34 6.66 3.68 7.32 3 8 C0.875 7.625 0.875 7.625 -1 7 C-1.625 4.625 -1.625 4.625 -2 2 C-1.34 1.34 -0.68 0.68 0 0 Z " fill="#E3E3E3" transform="translate(238,181)"/>
<path d="M0 0 C1.67542976 0.28604898 3.34385343 0.61781233 5 1 C5.38218767 2.65614657 5.71395102 4.32457024 6 6 C5 7 5 7 2.5 7.125 C0 7 0 7 -1 6 C-1.125 3.5 -1.125 3.5 -1 1 C-0.67 0.67 -0.34 0.34 0 0 Z " fill="#E8E8E8" transform="translate(288,178)"/>
<path d="M0 0 C1.32 0.33 2.64 0.66 4 1 C3.42655063 3.86724686 3.1385485 4.8614515 1 7 C-1.625 7.125 -1.625 7.125 -4 7 C-3.67 5.35 -3.34 3.7 -3 2 C-2.01 2 -1.02 2 0 2 C0 1.34 0 0.68 0 0 Z " fill="#C879E2" transform="translate(213,262)"/>
<path d="M0 0 C0.33 0.99 0.66 1.98 1 3 C-2.63 6.63 -6.26 10.26 -10 14 C-10.66 13.34 -11.32 12.68 -12 12 C-8.32167983 7.47384007 -4.58913637 3.60575001 0 0 Z " fill="#EEEEEF" transform="translate(266,310)"/>
<path d="M0 0 C0.66 0.33 1.32 0.66 2 1 C-2.62 5.62 -7.24 10.24 -12 15 C-12 10.09687565 -8.29800369 7.38658643 -5 4 C-3.37458956 2.61667196 -1.72614587 1.25537882 0 0 Z " fill="#4A4A4C" transform="translate(133,190)"/>
<path d="M0 0 C1.4540625 0.0309375 1.4540625 0.0309375 2.9375 0.0625 C2.9375 1.0525 2.9375 2.0425 2.9375 3.0625 C1.6175 3.0625 0.2975 3.0625 -1.0625 3.0625 C-1.0625 4.0525 -1.0625 5.0425 -1.0625 6.0625 C-2.3825 6.0625 -3.7025 6.0625 -5.0625 6.0625 C-3.98897059 0.08140756 -3.98897059 0.08140756 0 0 Z " fill="#2D2730" transform="translate(214.0625,257.9375)"/>
<path d="M0 0 C0.99 0.33 1.98 0.66 3 1 C1.02 3.31 -0.96 5.62 -3 8 C-3.99 6.68 -4.98 5.36 -6 4 C-4.03617993 2.49440461 -2.21736634 1.10868317 0 0 Z " fill="#DBDBDC" transform="translate(220,267)"/>
<path d="M0 0 C0.66 0.33 1.32 0.66 2 1 C-1.33333333 4.33333333 -4.66666667 7.66666667 -8 11 C-8.66 10.67 -9.32 10.34 -10 10 C-6.92118304 6.12948725 -3.99926986 2.97088618 0 0 Z " fill="#D5D5D5" transform="translate(225,104)"/>
<path d="M0 0 C0.66 0.33 1.32 0.66 2 1 C2 3.97 2 6.94 2 10 C1.01 10.33 0.02 10.66 -1 11 C-0.67 7.37 -0.34 3.74 0 0 Z " fill="#F4F4F4" transform="translate(275,284)"/>
<path d="M0 0 C1.98 0 3.96 0 6 0 C7.4783226 2.95664519 7.06032783 5.74229737 7 9 C6.67 8.01 6.34 7.02 6 6 C4.35 5.67 2.7 5.34 1 5 C2.32 4.67 3.64 4.34 5 4 C5 3.01 5 2.02 5 1 C3.35 1 1.7 1 0 1 C0 0.67 0 0.34 0 0 Z " fill="#6C656F" transform="translate(212,257)"/>
<path d="M0 0 C1.98 0.495 1.98 0.495 4 1 C4 2.32 4 3.64 4 5 C2.35 5 0.7 5 -1 5 C-0.67 3.35 -0.34 1.7 0 0 Z " fill="#E2E3E3" transform="translate(169,241)"/>
<path d="M0 0 C1.98 0.495 1.98 0.495 4 1 C3.67 2.32 3.34 3.64 3 5 C1.68 4.67 0.36 4.34 -1 4 C-0.67 2.68 -0.34 1.36 0 0 Z " fill="#E5E5E7" transform="translate(196,221)"/>
<path d="M0 0 C0.66 0 1.32 0 2 0 C2 1.65 2 3.3 2 5 C1.01 5 0.02 5 -1 5 C-2.68798827 6.43750191 -2.68798827 6.43750191 -4 8 C-4.66 7.67 -5.32 7.34 -6 7 C-5.04882866 5.8274869 -4.08882991 4.66212985 -3.125 3.5 C-2.59132813 2.8503125 -2.05765625 2.200625 -1.5078125 1.53125 C-0.76144531 0.77328125 -0.76144531 0.77328125 0 0 Z " fill="#DADADB" transform="translate(266,307)"/>
<path d="M0 0 C1.32 0.33 2.64 0.66 4 1 C3.625 2.9375 3.625 2.9375 3 5 C2.01 5.495 2.01 5.495 1 6 C1 5.01 1 4.02 1 3 C-0.32 2.67 -1.64 2.34 -3 2 C-2.01 2 -1.02 2 0 2 C0 1.34 0 0.68 0 0 Z " fill="#BF7BD4" transform="translate(213,262)"/>
<path d="M0 0 C0.33 0 0.66 0 1 0 C1.25 2.3125 1.25 2.3125 1 5 C-0.6875 6.875 -0.6875 6.875 -3 8 C-5.75 7.6875 -5.75 7.6875 -8 7 C-8 6.67 -8 6.34 -8 6 C-7.05125 5.7525 -6.1025 5.505 -5.125 5.25 C-1.91306809 4.3142923 -1.91306809 4.3142923 -0.625 1.875 C-0.41875 1.25625 -0.2125 0.6375 0 0 Z " fill="#3F2E45" transform="translate(217,263)"/>
<path d="M0 0 C0.66 0.33 1.32 0.66 2 1 C-0.31 3.31 -2.62 5.62 -5 8 C-5.33 7.34 -5.66 6.68 -6 6 C-4 4 -2 2 0 0 Z " fill="#4D4C4F" transform="translate(162,168)"/>
</svg>
